<svg xmlns="http://www.w3.org/2000/svg" version="1.1" xmlns:xlink="http://www.w3.org/1999/xlink" viewBox="0 0 18.13700952803608 13.442388011521924"><g transform="matrix(0.836281216293961,0,0,0.836281216293961,2.5850702776729566,10.334669617100115)"><g transform="matrix(1,0,0,1,0,0)" clip-path="url(#SvgjsClipPath66729)"><g clip-path="url(#SvgjsClipPath667276b687866-9a96-4c49-b36e-6fb19e8b078c)"><path d=" M 14.454645904444483 -5.3253278192600835 C 14.267009799314039 -7.931639084425654 11.997070576272556 -9.899529943110807 9.390759311106986 -9.71418208316488 C 7.889670470063427 -9.606634559492552 6.514435114168338 -8.780578047881692 5.7112610544026525 -7.503737234920858 C 5.6037135307303245 -7.32983060089752 5.649478434420677 -7.103294327630275 5.8188085780749805 -6.9888820684043935 L 7.056749222899014 -6.144519595317391 C 7.143702539910684 -6.085025220519933 7.251250063583011 -6.064431013859274 7.351932851701786 -6.08731346570445 C 7.454903885005079 -6.1101959175496265 7.5418572020167485 -6.174266782716121 7.596775086445171 -6.263508344912307 C 8.013235710027377 -6.963711371374699 8.747762414257535 -7.416783917909188 9.56237769994581 -7.476278292706646 C 10.933036565471863 -7.5746728356409045 12.127500551790064 -6.538097767054422 12.225895094724319 -5.167438901528367 C 12.27394824359919 -4.503847798018256 12.058853196254535 -3.8608509011688055 11.624086611196187 -3.357436960574929 C 11.189320026137835 -2.854023019981053 10.582935052240668 -2.5519746556247274 9.919343948730557 -2.5039215067498564 C 8.933110274203463 -2.43298590602981 7.997217993735757 -2.9524175629153113 7.537280711647714 -3.8288154685855584 C 7.443462659082491 -4.007298592977934 7.2237911213688 -4.080522438882498 7.040731506607391 -3.995857367055345 L 5.6815138670039245 -3.3643016961284813 C 5.5876958144387014 -3.3208250376226465 5.516760213718656 -3.24073645616453 5.4824365359508915 -3.144630158414789 C 5.448112858183127 -3.046235615480531 5.45497759373668 -2.9409763369927218 5.50303074261155 -2.849446529612017 C 6.313069537930787 -1.2408101648961303 7.946876599676368 -0.25 9.72255486286204 -0.25 C 9.834678876903407 -0.25 9.949091136129287 -0.2545764903690344 10.063503395355166 -0.2614412259225869 C 11.326614737208896 -0.3506827881187746 12.477602065021259 -0.9273205746172177 13.305946821816637 -1.8838070617455829 C 14.136579823796534 -2.840293548873947 14.543887466640673 -4.0622164774063565 14.454645904444483 -5.3253278192600835 Z M 12.733885525687231 -2.3826445119704225 C 12.038258989593874 -1.5794704522047383 11.07033127654292 -1.096650718271519 10.010873756111263 -1.01885038199792 C 8.539532102466431 -0.9135911035101092 7.152855520648755 -1.6229471107105713 6.372563912728245 -2.8471582844274987 L 7.049884487345462 -3.1629361198909303 C 7.653981216058113 -2.2750969882980936 8.660809097245867 -1.7396476151209708 9.738572579153669 -1.7396476151209708 C 9.816372915427266 -1.7396476151209708 9.894173251700863 -1.7419358603054889 9.971973587974464 -1.7488005958590414 C 10.839218512906644 -1.8105832158410156 11.628663101565223 -2.2064496327625642 12.198436152510109 -2.863176000719122 C 12.768209203454997 -3.5199023686756785 13.047375115966148 -4.357400106209128 12.985592495984172 -5.224645031141306 C 12.857450765651183 -7.014052765434085 11.299155794994682 -8.364117424299483 9.509748060701906 -8.235975693966495 C 8.585297006156786 -8.169616583615484 7.736358042700748 -7.711967546711961 7.173449727309413 -6.988882068404392 L 6.564776508227725 -7.405342691986599 C 7.253538308767529 -8.306911294686541 8.306131093645636 -8.881260836000465 9.44567719553541 -8.961349417458582 C 11.633239591934256 -9.11695009000578 13.541636075821952 -7.464837066784057 13.69723674836915 -5.27727467038521 C 13.772748839458231 -4.2109524144 13.429512061780589 -3.1858185717361076 12.733885525687231 -2.3826445119704225 Z" fill="#595959" transform="matrix(1,0,0,1,0,0)" fill-rule="nonzero"></path></g><g clip-path="url(#SvgjsClipPath667276b687866-9a96-4c49-b36e-6fb19e8b078c)"><path d=" M 8.631061909847137 -4.828778614219758 L 9.763743276183359 -4.828778614219758 C 9.866714309486653 -4.828778614219758 9.951379381313803 -4.913443686046911 9.951379381313803 -5.0164147193502036 L 9.951379381313803 -5.130826978576085 C 9.951379381313803 -5.233798011879378 9.866714309486653 -5.318463083706528 9.763743276183359 -5.318463083706528 L 8.665385587614901 -5.318463083706528 L 4.697568437661347 -5.318463083706528 L 5.017922763493813 -5.053026642302485 L 4.747909831720734 -4.8287786142197575 L 8.631061909847137 -4.8287786142197575 Z" fill="#595959" transform="matrix(1,0,0,1,0,0)" fill-rule="nonzero"></path></g><g clip-path="url(#SvgjsClipPath667276b687866-9a96-4c49-b36e-6fb19e8b078c)"><path d=" M 2.933331400398261 -5.053026642302486 L 1.038664387617671 -3.7853388100797245 L 3.4916632254205604 -3.7853388100797245 L 4.747909831720735 -4.828778614219758 L 5.017922763493813 -5.053026642302486 Z" fill="#876a57" transform="matrix(1,0,0,1,0,0)" fill-rule="nonzero"></path></g><g clip-path="url(#SvgjsClipPath667276b687866-9a96-4c49-b36e-6fb19e8b078c)"><path d=" M 9.679078204356209 -6.062142768674757 C 9.205411451161062 -6.062142768674757 8.802680298685958 -5.750941423580359 8.66767383279942 -5.320751328891049 L 9.766031521367879 -5.320751328891049 C 9.86900255467117 -5.320751328891049 9.953667626498323 -5.236086257063897 9.953667626498323 -5.133115223760604 L 9.953667626498323 -5.0187029645347225 C 9.953667626498323 -4.91573193123143 9.86900255467117 -4.831066859404278 9.766031521367879 -4.831066859404278 L 8.633350155031655 -4.831066859404278 C 8.71572698167429 -4.325364673625883 9.152781811917155 -3.9386512374424063 9.681366449540725 -3.9386512374424063 C 10.267157216777239 -3.9386512374424063 10.743112215156902 -4.414606235822071 10.743112215156902 -5.000397003058581 C 10.740823969972382 -5.5861877702950915 10.264868971592719 -6.062142768674757 9.679078204356209 -6.062142768674757 Z" fill="#d3b39f" transform="matrix(1,0,0,1,0,0)" fill-rule="nonzero"></path></g><g clip-path="url(#SvgjsClipPath667276b687866-9a96-4c49-b36e-6fb19e8b078c)"><path d=" M 3.4916632254205604 -6.320714474525248 L 1.038664387617671 -6.320714474525248 L 2.933331400398261 -5.053026642302486 L 5.017922763493813 -5.053026642302486 L 4.697568437661347 -5.320751328891046 Z" fill="#d3b39f" transform="matrix(1,0,0,1,0,0)" fill-rule="nonzero"></path></g></g><g><path d=" M 0.378 0.8489999999999999 L 0.7065 0.8489999999999999 L 0.7065 1.0739999999999998 L 0.084 1.0739999999999998 L 0.084 0.016499999999999737 L 0.378 0.016499999999999737 L 0.378 0.8489999999999999 M 1.113041748046875 0.2519999999999998 L 1.113041748046875 0.4244999999999999 L 1.450541748046875 0.4244999999999999 L 1.450541748046875 0.6479999999999999 L 1.113041748046875 0.6479999999999999 L 1.113041748046875 0.8384999999999998 L 1.495541748046875 0.8384999999999998 L 1.495541748046875 1.0739999999999998 L 0.8190417480468749 1.0739999999999998 L 0.8190417480468749 0.016499999999999737 L 1.495541748046875 0.016499999999999737 L 1.495541748046875 0.2519999999999998 L 1.113041748046875 0.2519999999999998 M 2.308502197265625 0.9014999999999999 L 1.933502197265625 0.9014999999999999 L 1.8765021972656248 1.0739999999999998 L 1.567502197265625 1.0739999999999998 L 1.9530021972656249 0.016499999999999737 L 2.292002197265625 0.016499999999999737 L 2.6760021972656247 1.0739999999999998 L 2.365502197265625 1.0739999999999998 L 2.308502197265625 0.9014999999999999 M 2.235002197265625 0.6764999999999999 L 2.121002197265625 0.3344999999999998 L 2.0085021972656247 0.6764999999999999 L 2.235002197265625 0.6764999999999999 M 3.4807595214843747 0.08324999999999982 Q 3.606009521484375 0.1499999999999998 3.673509521484375 0.2699999999999998 Q 3.741009521484375 0.3899999999999998 3.741009521484375 0.5444999999999999 Q 3.741009521484375 0.6974999999999998 3.672759521484375 0.8174999999999999 Q 3.604509521484375 0.9374999999999998 3.4792595214843747 1.00575 Q 3.354009521484375 1.0739999999999998 3.1890095214843748 1.0739999999999998 L 2.770509521484375 1.0739999999999998 L 2.770509521484375 0.016499999999999737 L 3.1890095214843748 0.016499999999999737 Q 3.355509521484375 0.016499999999999737 3.4807595214843747 0.08324999999999982 M 3.369009521484375 0.7439999999999998 Q 3.442509521484375 0.6734999999999998 3.442509521484375 0.5444999999999999 Q 3.442509521484375 0.4139999999999998 3.369009521484375 0.3427499999999998 Q 3.295509521484375 0.27149999999999985 3.166509521484375 0.27149999999999985 L 3.064509521484375 0.27149999999999985 L 3.064509521484375 0.8144999999999998 L 3.166509521484375 0.8144999999999998 Q 3.295509521484375 0.8144999999999998 3.369009521484375 0.7439999999999998 M 4.8254560546875 0.9014999999999999 L 4.4504560546875 0.9014999999999999 L 4.3934560546874994 1.0739999999999998 L 4.084456054687499 1.0739999999999998 L 4.4699560546875 0.016499999999999737 L 4.8089560546875 0.016499999999999737 L 5.1929560546874995 1.0739999999999998 L 4.8824560546875 1.0739999999999998 L 4.8254560546875 0.9014999999999999 M 4.7519560546875 0.6764999999999999 L 4.6379560546875 0.3344999999999998 L 4.5254560546875 0.6764999999999999 L 4.7519560546875 0.6764999999999999 M 5.5754633789062495 0.016499999999999737 L 5.5754633789062495 0.6299999999999999 Q 5.5754633789062495 0.7154999999999998 5.615213378906249 0.7619999999999998 Q 5.65496337890625 0.8084999999999998 5.735963378906249 0.8084999999999998 Q 5.81696337890625 0.8084999999999998 5.85821337890625 0.7612499999999998 Q 5.899463378906249 0.7139999999999999 5.899463378906249 0.6299999999999999 L 5.899463378906249 0.016499999999999737 L 6.19346337890625 0.016499999999999737 L 6.19346337890625 0.6299999999999999 Q 6.19346337890625 0.7754999999999999 6.131963378906249 0.8782499999999999 Q 6.07046337890625 0.9809999999999999 5.96471337890625 1.0327499999999998 Q 5.85896337890625 1.0844999999999998 5.72996337890625 1.0844999999999998 Q 5.60096337890625 1.0844999999999998 5.499713378906249 1.0327499999999998 Q 5.39846337890625 0.9809999999999999 5.3407133789062495 0.8789999999999998 Q 5.28296337890625 0.7769999999999999 5.28296337890625 0.6299999999999999 L 5.28296337890625 0.016499999999999737 L 5.5754633789062495 0.016499999999999737 M 7.150426025390624 0.016499999999999737 L 7.150426025390624 0.25049999999999983 L 6.868426025390624 0.25049999999999983 L 6.868426025390624 1.0739999999999998 L 6.574426025390625 1.0739999999999998 L 6.574426025390625 0.25049999999999983 L 6.295426025390625 0.25049999999999983 L 6.295426025390625 0.016499999999999737 L 7.150426025390624 0.016499999999999737 M 7.492431884765624 1.0147499999999998 Q 7.367931884765625 0.9449999999999998 7.295181884765625 0.8212499999999998 Q 7.222431884765625 0.6974999999999998 7.222431884765625 0.5414999999999999 Q 7.222431884765625 0.38549999999999984 7.295181884765625 0.2617499999999998 Q 7.367931884765625 0.1379999999999998 7.492431884765624 0.06899999999999973 Q 7.616931884765624 -2.220446049250313e-16 7.765431884765625 -2.220446049250313e-16 Q 7.915431884765624 -2.220446049250313e-16 8.039181884765625 0.06899999999999973 Q 8.162931884765625 0.1379999999999998 8.234931884765624 0.2617499999999998 Q 8.306931884765625 0.38549999999999984 8.306931884765625 0.5414999999999999 Q 8.306931884765625 0.6974999999999998 8.234931884765624 0.8212499999999998 Q 8.162931884765625 0.9449999999999998 8.038431884765625 1.0147499999999998 Q 7.913931884765624 1.0844999999999998 7.765431884765625 1.0844999999999998 Q 7.616931884765624 1.0844999999999998 7.492431884765624 1.0147499999999998 M 7.943181884765624 0.7379999999999998 Q 8.008431884765624 0.6644999999999999 8.008431884765624 0.5414999999999999 Q 8.008431884765624 0.41549999999999987 7.943181884765624 0.3427499999999998 Q 7.877931884765625 0.2699999999999998 7.765431884765625 0.2699999999999998 Q 7.651431884765625 0.2699999999999998 7.586931884765624 0.3427499999999998 Q 7.522431884765624 0.41549999999999987 7.522431884765624 0.5414999999999999 Q 7.522431884765624 0.6659999999999998 7.586931884765624 0.7387499999999998 Q 7.651431884765625 0.8114999999999999 7.765431884765625 0.8114999999999999 Q 7.877931884765625 0.8114999999999999 7.943181884765624 0.7379999999999998 M 9.671912841796875 0.016499999999999737 L 9.671912841796875 1.0739999999999998 L 9.377912841796874 1.0739999999999998 L 9.377912841796874 0.4904999999999998 L 9.178412841796874 1.0739999999999998 L 8.932412841796875 1.0739999999999998 L 8.731412841796875 0.4859999999999999 L 8.731412841796875 1.0739999999999998 L 8.437412841796874 1.0739999999999998 L 8.437412841796874 0.016499999999999737 L 8.792912841796875 0.016499999999999737 L 9.058412841796875 0.7034999999999998 L 9.317912841796874 0.016499999999999737 L 9.671912841796875 0.016499999999999737 M 10.5074091796875 0.9014999999999999 L 10.1324091796875 0.9014999999999999 L 10.0754091796875 1.0739999999999998 L 9.7664091796875 1.0739999999999998 L 10.1519091796875 0.016499999999999737 L 10.490909179687499 0.016499999999999737 L 10.8749091796875 1.0739999999999998 L 10.5644091796875 1.0739999999999998 L 10.5074091796875 0.9014999999999999 M 10.4339091796875 0.6764999999999999 L 10.3199091796875 0.3344999999999998 L 10.207409179687499 0.6764999999999999 L 10.4339091796875 0.6764999999999999 M 11.765916503906249 0.016499999999999737 L 11.765916503906249 0.25049999999999983 L 11.483916503906249 0.25049999999999983 L 11.483916503906249 1.0739999999999998 L 11.18991650390625 1.0739999999999998 L 11.18991650390625 0.25049999999999983 L 10.910916503906249 0.25049999999999983 L 10.910916503906249 0.016499999999999737 L 11.765916503906249 0.016499999999999737 M 12.16792236328125 0.016499999999999737 L 12.16792236328125 1.0739999999999998 L 11.873922363281249 1.0739999999999998 L 11.873922363281249 0.016499999999999737 L 12.16792236328125 0.016499999999999737 M 12.568397460937499 1.0147499999999998 Q 12.4438974609375 0.9449999999999998 12.371147460937499 0.8212499999999998 Q 12.2983974609375 0.6974999999999998 12.2983974609375 0.5414999999999999 Q 12.2983974609375 0.38549999999999984 12.371147460937499 0.2617499999999998 Q 12.4438974609375 0.1379999999999998 12.568397460937499 0.06899999999999973 Q 12.6928974609375 -2.220446049250313e-16 12.841397460937499 -2.220446049250313e-16 Q 12.991397460937499 -2.220446049250313e-16 13.1151474609375 0.06899999999999973 Q 13.2388974609375 0.1379999999999998 13.310897460937499 0.2617499999999998 Q 13.3828974609375 0.38549999999999984 13.3828974609375 0.5414999999999999 Q 13.3828974609375 0.6974999999999998 13.310897460937499 0.8212499999999998 Q 13.2388974609375 0.9449999999999998 13.1143974609375 1.0147499999999998 Q 12.989897460937499 1.0844999999999998 12.841397460937499 1.0844999999999998 Q 12.6928974609375 1.0844999999999998 12.568397460937499 1.0147499999999998 M 13.0191474609375 0.7379999999999998 Q 13.084397460937499 0.6644999999999999 13.084397460937499 0.5414999999999999 Q 13.084397460937499 0.41549999999999987 13.0191474609375 0.3427499999999998 Q 12.9538974609375 0.2699999999999998 12.841397460937499 0.2699999999999998 Q 12.7273974609375 0.2699999999999998 12.662897460937499 0.3427499999999998 Q 12.5983974609375 0.41549999999999987 12.5983974609375 0.5414999999999999 Q 12.5983974609375 0.6659999999999998 12.662897460937499 0.7387499999999998 Q 12.7273974609375 0.8114999999999999 12.841397460937499 0.8114999999999999 Q 12.9538974609375 0.8114999999999999 13.0191474609375 0.7379999999999998 M 14.492878417968749 1.0739999999999998 L 14.19887841796875 1.0739999999999998 L 13.80737841796875 0.4829999999999999 L 13.80737841796875 1.0739999999999998 L 13.513378417968749 1.0739999999999998 L 13.513378417968749 0.016499999999999737 L 13.80737841796875 0.016499999999999737 L 14.19887841796875 0.6149999999999998 L 14.19887841796875 0.016499999999999737 L 14.492878417968749 0.016499999999999737 L 14.492878417968749 1.0739999999999998 M 14.755400390624999 0.9967499999999998 Q 14.636900390625 0.9089999999999998 14.627900390625 0.7454999999999998 L 14.941400390624999 0.7454999999999998 Q 14.945900390624999 0.8009999999999998 14.974400390625 0.8264999999999998 Q 15.002900390625 0.8519999999999999 15.047900390625 0.8519999999999999 Q 15.088400390624999 0.8519999999999999 15.114650390624998 0.8317499999999999 Q 15.140900390625 0.8114999999999999 15.140900390625 0.7754999999999999 Q 15.140900390625 0.7289999999999999 15.097400390625 0.7034999999999998 Q 15.053900390625 0.6779999999999998 14.956400390625 0.6464999999999999 Q 14.852900390624999 0.6119999999999999 14.789150390624998 0.5797499999999998 Q 14.725400390625 0.5474999999999999 14.678150390625 0.48524999999999985 Q 14.630900390625 0.4229999999999998 14.630900390625 0.3224999999999998 Q 14.630900390625 0.2204999999999998 14.681900390625 0.14774999999999983 Q 14.732900390625 0.07499999999999984 14.822900390625 0.03749999999999987 Q 14.912900390625 -2.220446049250313e-16 15.026900390624998 -2.220446049250313e-16 Q 15.211400390624998 -2.220446049250313e-16 15.321650390624999 0.08624999999999983 Q 15.431900390625 0.17249999999999988 15.439400390625 0.3284999999999998 L 15.119900390624998 0.3284999999999998 Q 15.118400390624998 0.28049999999999986 15.090650390625 0.25649999999999984 Q 15.062900390625 0.23249999999999982 15.019400390625 0.23249999999999982 Q 14.986400390624999 0.23249999999999982 14.965400390625 0.2519999999999998 Q 14.944400390624999 0.27149999999999985 14.944400390624999 0.3074999999999998 Q 14.944400390624999 0.3374999999999998 14.967650390625 0.35924999999999985 Q 14.990900390624999 0.3809999999999998 15.025400390624998 0.3967499999999998 Q 15.059900390625 0.41249999999999987 15.127400390624999 0.4364999999999998 Q 15.227900390624999 0.47099999999999986 15.293150390625 0.5047499999999998 Q 15.358400390624999 0.5384999999999999 15.405650390624999 0.5992499999999998 Q 15.452900390624999 0.6599999999999998 15.452900390624999 0.7529999999999999 Q 15.452900390624999 0.8474999999999998 15.405650390624999 0.9224999999999999 Q 15.358400390624999 0.9974999999999998 15.269150390624999 1.041 Q 15.179900390624999 1.0844999999999998 15.058400390625 1.0844999999999998 Q 14.873900390625 1.0844999999999998 14.755400390624999 0.9967499999999998" fill="#595959" fill-rule="nonzero"></path></g><g></g></g><defs><clipPath id="SvgjsClipPath66729"><path d=" M 1.038664387617671 -9.72627154989209 h 13.428064291170907 v 9.47627154989209 h -13.428064291170907 Z"></path></clipPath><clipPath id="SvgjsClipPath667276b687866-9a96-4c49-b36e-6fb19e8b078c"><path d=" M 1.038664387617671 -9.72627154989209 L 14.466728678788577 -9.72627154989209 L 14.466728678788577 -0.25 L 1.038664387617671 -0.25 Z"></path></clipPath></defs></svg>